<svg width="24" height="24" viewBox="0 0 24 24" fill="none" xmlns="http://www.w3.org/2000/svg">
<path d="M16.505 3.24258C16.505 3.00805 16.5982 2.78312 16.764 2.61728C16.9299 2.45144 17.1548 2.35828 17.3893 2.35828H20.337C20.5715 2.35828 20.7964 2.45144 20.9623 2.61728C21.1281 2.78312 21.2213 3.00805 21.2213 3.24258V6.19025C21.2213 6.42478 21.1281 6.64971 20.9623 6.81555C20.7964 6.98139 20.5715 7.07456 20.337 7.07456C20.1025 7.07456 19.8775 6.98139 19.7117 6.81555C19.5459 6.64971 19.4527 6.42478 19.4527 6.19025V5.37669L14.1822 10.6471C14.0164 10.8127 13.7917 10.9058 13.5573 10.9058C13.323 10.9058 13.0982 10.8127 12.9324 10.6471L10.0201 7.73483L5.04445 12.7105C4.96349 12.7974 4.86587 12.8671 4.75739 12.9154C4.64892 12.9637 4.53182 12.9897 4.41309 12.9918C4.29435 12.9939 4.17641 12.9721 4.0663 12.9276C3.95619 12.8831 3.85616 12.8169 3.77219 12.733C3.68822 12.649 3.62202 12.549 3.57754 12.4388C3.53307 12.3287 3.51123 12.2108 3.51332 12.0921C3.51542 11.9733 3.54141 11.8562 3.58974 11.7478C3.63807 11.6393 3.70776 11.5417 3.79464 11.4607L9.39522 5.86011C9.56103 5.69451 9.78578 5.6015 10.0201 5.6015C10.2545 5.6015 10.4792 5.69451 10.645 5.86011L13.5573 8.77242L18.2029 4.12688H17.3893C17.1548 4.12688 16.9299 4.03371 16.764 3.86787C16.5982 3.70204 16.505 3.47711 16.505 3.24258ZM4.41954 16.5071C4.65408 16.5071 4.879 16.6003 5.04484 16.7661C5.21068 16.932 5.30385 17.1569 5.30385 17.3914V20.3391C5.30385 20.5736 5.21068 20.7985 5.04484 20.9644C4.879 21.1302 4.65408 21.2234 4.41954 21.2234C4.18501 21.2234 3.96009 21.1302 3.79425 20.9644C3.62841 20.7985 3.53524 20.5736 3.53524 20.3391V17.3914C3.53524 17.1569 3.62841 16.932 3.79425 16.7661C3.96009 16.6003 4.18501 16.5071 4.41954 16.5071ZM10.0201 13.8542C10.0201 13.6197 9.92696 13.3947 9.76112 13.2289C9.59528 13.0631 9.37035 12.9699 9.13582 12.9699C8.90129 12.9699 8.67637 13.0631 8.51053 13.2289C8.34469 13.3947 8.25152 13.6197 8.25152 13.8542V20.3391C8.25152 20.5736 8.34469 20.7985 8.51053 20.9644C8.67637 21.1302 8.90129 21.2234 9.13582 21.2234C9.37035 21.2234 9.59528 21.1302 9.76112 20.9644C9.92696 20.7985 10.0201 20.5736 10.0201 20.3391V13.8542ZM13.8521 15.328C14.0866 15.328 14.3116 15.4212 14.4774 15.5871C14.6432 15.7529 14.7364 15.9778 14.7364 16.2123V20.3391C14.7364 20.5736 14.6432 20.7985 14.4774 20.9644C14.3116 21.1302 14.0866 21.2234 13.8521 21.2234C13.6176 21.2234 13.3926 21.1302 13.2268 20.9644C13.061 20.7985 12.9678 20.5736 12.9678 20.3391V16.2123C12.9678 15.9778 13.061 15.7529 13.2268 15.5871C13.3926 15.4212 13.6176 15.328 13.8521 15.328ZM19.4527 11.4961C19.4527 11.2615 19.3595 11.0366 19.1937 10.8708C19.0278 10.7049 18.8029 10.6118 18.5684 10.6118C18.3338 10.6118 18.1089 10.7049 17.9431 10.8708C17.7772 11.0366 17.6841 11.2615 17.6841 11.4961V20.3391C17.6841 20.5736 17.7772 20.7985 17.9431 20.9644C18.1089 21.1302 18.3338 21.2234 18.5684 21.2234C18.8029 21.2234 19.0278 21.1302 19.1937 20.9644C19.3595 20.7985 19.4527 20.5736 19.4527 20.3391V11.4961Z" fill="#C68313"/>
</svg>
