<svg width="39" height="39" viewBox="0 0 39 39" fill="none" xmlns="http://www.w3.org/2000/svg">
<rect width="39" height="39" rx="19.5" fill="#C68313"/>
<path d="M24.6676 11.4054C24.6676 11.1708 24.7608 10.9459 24.9266 10.7801C25.0925 10.6142 25.3174 10.5211 25.5519 10.5211H28.4996C28.7341 10.5211 28.959 10.6142 29.1249 10.7801C29.2907 10.9459 29.3839 11.1708 29.3839 11.4054V14.353C29.3839 14.5876 29.2907 14.8125 29.1249 14.9783C28.959 15.1442 28.7341 15.2373 28.4996 15.2373C28.2651 15.2373 28.0401 15.1442 27.8743 14.9783C27.7084 14.8125 27.6153 14.5876 27.6153 14.353V13.5395L22.3448 18.8099C22.179 18.9755 21.9543 19.0685 21.7199 19.0685C21.4856 19.0685 21.2608 18.9755 21.095 18.8099L18.1827 15.8976L13.207 20.8733C13.1261 20.9602 13.0285 21.0299 12.92 21.0782C12.8115 21.1265 12.6944 21.1525 12.5757 21.1546C12.4569 21.1567 12.339 21.1349 12.2289 21.0904C12.1188 21.0459 12.0188 20.9797 11.9348 20.8957C11.8508 20.8118 11.7846 20.7117 11.7401 20.6016C11.6957 20.4915 11.6738 20.3736 11.6759 20.2548C11.678 20.1361 11.704 20.019 11.7523 19.9105C11.8007 19.8021 11.8704 19.7044 11.9572 19.6235L17.5578 14.0229C17.7236 13.8573 17.9484 13.7643 18.1827 13.7643C18.4171 13.7643 18.6418 13.8573 18.8076 14.0229L21.7199 16.9352L26.3655 12.2897H25.5519C25.3174 12.2897 25.0925 12.1965 24.9266 12.0307C24.7608 11.8648 24.6676 11.6399 24.6676 11.4054ZM12.5821 24.6699C12.8167 24.6699 13.0416 24.7631 13.2074 24.9289C13.3733 25.0947 13.4664 25.3197 13.4664 25.5542V28.5019C13.4664 28.7364 13.3733 28.9613 13.2074 29.1272C13.0416 29.293 12.8167 29.3862 12.5821 29.3862C12.3476 29.3862 12.1227 29.293 11.9568 29.1272C11.791 28.9613 11.6978 28.7364 11.6978 28.5019V25.5542C11.6978 25.3197 11.791 25.0947 11.9568 24.9289C12.1227 24.7631 12.3476 24.6699 12.5821 24.6699ZM18.1827 22.017C18.1827 21.7825 18.0896 21.5575 17.9237 21.3917C17.7579 21.2259 17.533 21.1327 17.2984 21.1327C17.0639 21.1327 16.839 21.2259 16.6731 21.3917C16.5073 21.5575 16.4141 21.7825 16.4141 22.017V28.5019C16.4141 28.7364 16.5073 28.9613 16.6731 29.1272C16.839 29.293 17.0639 29.3862 17.2984 29.3862C17.533 29.3862 17.7579 29.293 17.9237 29.1272C18.0896 28.9613 18.1827 28.7364 18.1827 28.5019V22.017ZM22.0147 23.4908C22.2492 23.4908 22.4742 23.584 22.64 23.7498C22.8058 23.9157 22.899 24.1406 22.899 24.3751V28.5019C22.899 28.7364 22.8058 28.9613 22.64 29.1272C22.4742 29.293 22.2492 29.3862 22.0147 29.3862C21.7802 29.3862 21.5552 29.293 21.3894 29.1272C21.2236 28.9613 21.1304 28.7364 21.1304 28.5019V24.3751C21.1304 24.1406 21.2236 23.9157 21.3894 23.7498C21.5552 23.584 21.7802 23.4908 22.0147 23.4908ZM27.6153 19.6588C27.6153 19.4243 27.5221 19.1994 27.3563 19.0336C27.1904 18.8677 26.9655 18.7745 26.731 18.7745C26.4964 18.7745 26.2715 18.8677 26.1057 19.0336C25.9398 19.1994 25.8467 19.4243 25.8467 19.6588V28.5019C25.8467 28.7364 25.9398 28.9613 26.1057 29.1272C26.2715 29.293 26.4964 29.3862 26.731 29.3862C26.9655 29.3862 27.1904 29.293 27.3563 29.1272C27.5221 28.9613 27.6153 28.7364 27.6153 28.5019V19.6588Z" fill="white"/>
</svg>
