<svg width="130" height="36" viewBox="0 0 130 36" fill="none" xmlns="http://www.w3.org/2000/svg">
<rect width="35.7143" height="35.7143" rx="17.8571" fill="#C68313"/>
<g clip-path="url(#clip0_36_108)">
<path d="M23.8911 23.8976H21.3526V19.9198C21.3526 18.9712 21.3333 17.7505 20.0297 17.7505C18.7061 17.7505 18.504 18.7826 18.504 19.8498V23.8976H15.9654V15.7176H18.404V16.8326H18.4368C18.7776 16.1898 19.6061 15.5112 20.844 15.5112C23.4161 15.5112 23.8918 17.2041 23.8918 19.4076L23.8911 23.8976ZM13.0983 14.5983C12.9046 14.5986 12.7127 14.5607 12.5337 14.4866C12.3547 14.4126 12.1921 14.3039 12.0552 14.1669C11.9183 14.0298 11.8098 13.8671 11.7359 13.688C11.662 13.509 11.6242 13.3171 11.6247 13.1233C11.6248 12.8318 11.7114 12.5468 11.8736 12.3044C12.0357 12.062 12.266 11.8732 12.5355 11.7617C12.8049 11.6503 13.1014 11.6212 13.3873 11.6782C13.6733 11.7353 13.9359 11.8758 14.142 12.0821C14.3481 12.2884 14.4883 12.5511 14.5451 12.8371C14.6018 13.1232 14.5725 13.4196 14.4608 13.6889C14.3491 13.9582 14.16 14.1884 13.9175 14.3503C13.6749 14.5122 13.3899 14.5985 13.0983 14.5983ZM14.3711 23.8976H11.8254V15.7176H14.3711V23.8976ZM25.1611 9.28906H10.5511C9.85185 9.28906 9.28613 9.84192 9.28613 10.5241V25.1969C9.28613 25.8798 9.85185 26.4319 10.5511 26.4319H25.159C25.8576 26.4319 26.429 25.8798 26.429 25.1969V10.5241C26.429 9.84192 25.8576 9.28906 25.159 9.28906H25.1611Z" fill="white"/>
</g>
<rect x="47.1431" width="35.7143" height="35.7143" rx="17.8571" fill="#C68313"/>
<path d="M65.0001 13.8534C62.7833 13.8534 60.9942 15.6424 60.9942 17.8592C60.9942 20.076 62.7833 21.8651 65.0001 21.8651C67.2169 21.8651 69.006 20.076 69.006 17.8592C69.006 15.6424 67.2169 13.8534 65.0001 13.8534ZM65.0001 20.4627C63.5665 20.4627 62.3966 19.2928 62.3966 17.8592C62.3966 16.4256 63.5665 15.2557 65.0001 15.2557C66.4337 15.2557 67.6036 16.4256 67.6036 17.8592C67.6036 19.2928 66.4337 20.4627 65.0001 20.4627ZM69.17 12.7557C68.6524 12.7557 68.2345 13.1737 68.2345 13.6913C68.2345 14.2088 68.6524 14.6268 69.17 14.6268C69.6876 14.6268 70.1056 14.2108 70.1056 13.6913C70.1057 13.5684 70.0816 13.4466 70.0347 13.3331C69.9877 13.2195 69.9188 13.1163 69.8319 13.0294C69.745 12.9425 69.6418 12.8736 69.5282 12.8266C69.4146 12.7796 69.2929 12.7556 69.17 12.7557ZM72.8087 17.8592C72.8087 16.7811 72.8185 15.7127 72.7579 14.6366C72.6974 13.3866 72.4122 12.2772 71.4981 11.3631C70.5821 10.4471 69.4747 10.1639 68.2247 10.1034C67.1466 10.0428 66.0782 10.0526 65.002 10.0526C63.9239 10.0526 62.8556 10.0428 61.7794 10.1034C60.5294 10.1639 59.42 10.4491 58.506 11.3631C57.5899 12.2791 57.3067 13.3866 57.2462 14.6366C57.1856 15.7147 57.1954 16.7831 57.1954 17.8592C57.1954 18.9354 57.1856 20.0057 57.2462 21.0819C57.3067 22.3319 57.5919 23.4413 58.506 24.3553C59.422 25.2713 60.5294 25.5545 61.7794 25.6151C62.8575 25.6756 63.9259 25.6659 65.002 25.6659C66.0802 25.6659 67.1485 25.6756 68.2247 25.6151C69.4747 25.5545 70.5841 25.2694 71.4981 24.3553C72.4142 23.4393 72.6974 22.3319 72.7579 21.0819C72.8204 20.0057 72.8087 18.9373 72.8087 17.8592ZM71.0899 22.4647C70.9474 22.8202 70.7755 23.0858 70.5001 23.3592C70.2247 23.6346 69.961 23.8065 69.6056 23.9491C68.5782 24.3573 66.1388 24.2655 65.0001 24.2655C63.8614 24.2655 61.42 24.3573 60.3927 23.951C60.0372 23.8084 59.7716 23.6366 59.4981 23.3612C59.2227 23.0858 59.0509 22.8221 58.9083 22.4666C58.502 21.4374 58.5938 18.9979 58.5938 17.8592C58.5938 16.7206 58.502 14.2791 58.9083 13.2518C59.0509 12.8963 59.2227 12.6307 59.4981 12.3573C59.7735 12.0838 60.0372 11.91 60.3927 11.7674C61.42 11.3612 63.8614 11.453 65.0001 11.453C66.1388 11.453 68.5802 11.3612 69.6075 11.7674C69.963 11.91 70.2286 12.0819 70.502 12.3573C70.7774 12.6327 70.9493 12.8963 71.0919 13.2518C71.4981 14.2791 71.4063 16.7206 71.4063 17.8592C71.4063 18.9979 71.4981 21.4373 71.0899 22.4647Z" fill="white"/>
<rect x="94.2856" width="35.7143" height="35.7143" rx="17.8571" fill="#C68313"/>
<g clip-path="url(#clip1_36_108)">
<path d="M120.71 17.9141C120.71 13.1505 116.873 9.28906 112.139 9.28906C107.403 9.29013 103.565 13.1505 103.565 17.9151C103.565 22.2191 106.7 25.7869 110.798 26.4341V20.4073H108.623V17.9151H110.8V16.0133C110.8 13.8523 112.08 12.6587 114.038 12.6587C114.976 12.6587 115.957 12.8269 115.957 12.8269V14.9483H114.875C113.812 14.9483 113.479 15.6137 113.479 16.2962V17.9141H115.856L115.477 20.4062H113.478V26.433C117.575 25.7858 120.71 22.218 120.71 17.9141Z" fill="white"/>
</g>
<defs>
<clipPath id="clip0_36_108">
<rect width="17.1429" height="17.1429" fill="white" transform="translate(9.28369 9.28711)"/>
</clipPath>
<clipPath id="clip1_36_108">
<rect width="17.1429" height="17.1429" fill="white" transform="translate(103.573 9.28711)"/>
</clipPath>
</defs>
</svg>
