<svg width="105" height="36" viewBox="0 0 105 36" fill="none" xmlns="http://www.w3.org/2000/svg">
<path d="M25.9544 13.0608H13.7615V16.679H22.4105C21.9809 21.7511 17.7597 23.9154 13.778 23.9154C11.2147 23.9154 8.75631 22.8971 6.94376 21.0846C5.1312 19.272 4.11292 16.8137 4.11292 14.2503C4.11292 11.687 5.1312 9.22862 6.94376 7.41607C8.75631 5.60351 11.2147 4.58523 13.778 4.58523C16.2077 4.58145 18.5441 5.52016 20.2957 7.20389L22.8318 4.57697C20.3817 2.20947 17.0938 0.90856 13.6871 0.958752C11.9417 0.971227 10.2157 1.32738 8.60791 2.00687C7.00007 2.68636 5.54182 3.67588 4.31641 4.91894C3.09099 6.16199 2.12242 7.63424 1.46598 9.25162C0.809542 10.869 0.478098 12.5998 0.490574 14.3453C0.503049 16.0908 0.859199 17.8167 1.53869 19.4245C2.21818 21.0324 3.2077 22.4906 4.45076 23.716C5.69381 24.9415 7.16606 25.91 8.78344 26.5665C10.4008 27.2229 12.1317 27.5543 13.8771 27.5419C20.9896 27.5419 26.2022 22.668 26.2022 15.4564C26.2178 14.652 26.143 13.8484 25.9791 13.0608H25.9544ZM35.9416 10.4421C34.2551 10.4486 32.6082 10.9543 31.2086 11.8954C29.809 12.8365 28.7194 14.1708 28.077 15.7302C27.4346 17.2896 27.2682 19.0043 27.5988 20.6582C27.9295 22.312 28.7423 23.8309 29.9349 25.0235C31.1275 26.2161 32.6464 27.0289 34.3002 27.3595C35.954 27.6902 37.6687 27.5238 39.2282 26.8814C40.7876 26.239 42.1219 25.1494 43.063 23.7498C44.0041 22.3502 44.5097 20.7033 44.5163 19.0168C44.5341 17.8858 44.3245 16.7628 43.8999 15.7144C43.4753 14.666 42.8444 13.7136 42.0446 12.9138C41.2448 12.114 40.2924 11.483 39.244 11.0585C38.1956 10.6339 37.0726 10.4243 35.9416 10.4421ZM35.9912 13.796C37.0308 13.7347 38.0647 13.9873 38.959 14.5208C39.8533 15.0544 40.5667 15.8443 41.0065 16.7883C41.4464 17.7322 41.5925 18.7865 41.4259 19.8144C41.2592 20.8424 40.7876 21.7966 40.072 22.5532C39.3565 23.3098 38.4301 23.834 37.4131 24.0577C36.396 24.2814 35.3352 24.1944 34.3682 23.8078C33.4012 23.4213 32.5727 22.7532 31.9901 21.89C31.4075 21.0269 31.0977 20.0086 31.1008 18.9672C31.0661 18.3026 31.1668 17.6379 31.3967 17.0133C31.6265 16.3888 31.9809 15.8174 32.4381 15.3339C32.8954 14.8504 33.4461 14.4647 34.0569 14.2004C34.6676 13.936 35.3257 13.7984 35.9912 13.796ZM54.6274 10.4421C52.9405 10.447 51.2929 10.9513 49.8922 11.8914C48.4915 12.8315 47.4006 14.1653 46.7569 15.7245C46.1132 17.2838 45.9457 18.9988 46.2754 20.6531C46.6051 22.3075 47.4173 23.8272 48.6095 25.0206C49.8018 26.214 51.3207 27.0277 52.9748 27.359C54.6288 27.6903 56.3439 27.5244 57.9038 26.8822C59.4637 26.2401 60.7986 25.1504 61.74 23.7506C62.6814 22.3509 63.1873 20.7037 63.1939 19.0168C63.2117 17.8865 63.0023 16.7642 62.5782 15.7163C62.1542 14.6685 61.524 13.7165 60.725 12.9168C59.9261 12.1171 58.9747 11.486 57.9273 11.0609C56.8799 10.6358 55.7577 10.4254 54.6274 10.4421ZM54.677 13.796C55.7166 13.7347 56.7506 13.9873 57.6449 14.5208C58.5392 15.0544 59.2525 15.8443 59.6924 16.7883C60.1323 17.7322 60.2783 18.7865 60.1117 19.8144C59.9451 20.8424 59.4734 21.7966 58.7579 22.5532C58.0423 23.3098 57.116 23.834 56.0989 24.0577C55.0819 24.2814 54.021 24.1944 53.0541 23.8078C52.0871 23.4213 51.2585 22.7532 50.6759 21.89C50.0933 21.0269 49.7835 20.0086 49.7866 18.9672C49.752 18.3026 49.8526 17.6379 50.0825 17.0133C50.3124 16.3888 50.6667 15.8174 51.124 15.3339C51.5812 14.8504 52.1319 14.4647 52.7427 14.2004C53.3534 13.936 54.0115 13.7984 54.677 13.796ZM72.9416 10.4504C68.3486 10.4504 64.7386 14.4734 64.7386 18.9837C64.7048 21.1878 65.536 23.3174 67.054 24.9158C68.5721 26.5141 70.656 27.4539 72.8589 27.5336C73.7479 27.582 74.6357 27.4194 75.4497 27.0591C76.2638 26.6987 76.981 26.1508 77.5428 25.4602V27.1123C77.5428 30.0614 75.7502 31.8209 73.0489 31.8209C72.1069 31.8131 71.1886 31.5244 70.4115 30.9917C69.6345 30.4589 69.0341 29.7065 68.6873 28.8306L65.383 30.2018C66.022 31.7064 67.0932 32.9876 68.4607 33.8831C69.8283 34.7787 71.4308 35.2483 73.0655 35.2326C77.6337 35.2326 81.1114 32.3579 81.1114 26.3275V10.9625H77.551V12.4082C76.9672 11.7715 76.2536 11.2674 75.4585 10.9296C74.6634 10.5919 73.8051 10.4285 72.9416 10.4504ZM73.272 13.796C75.5272 13.796 77.8319 15.7207 77.8319 19.0002C77.8319 22.2798 75.5272 24.1797 73.2224 24.1797C72.5707 24.1632 71.9289 24.0156 71.3354 23.7457C70.7419 23.4759 70.2088 23.0893 69.7679 22.6091C69.327 22.1288 68.9872 21.5647 68.7689 20.9504C68.5506 20.3361 68.4582 19.6841 68.4973 19.0333C68.4973 15.729 70.8598 13.796 73.272 13.796ZM97.063 10.4256C92.7343 10.4256 89.0913 13.8703 89.0913 18.959C89.0485 20.0804 89.2347 21.1988 89.6385 22.2459C90.0423 23.293 90.6552 24.2469 91.4398 25.0493C92.2244 25.8517 93.1643 26.4858 94.2021 26.913C95.2399 27.3401 96.3539 27.5513 97.476 27.5336C98.8833 27.5364 100.27 27.1964 101.517 26.5429C102.763 25.8895 103.832 24.9423 104.63 23.7832L101.672 21.8172C101.244 22.5442 100.631 23.1449 99.8954 23.5584C99.1599 23.9719 98.328 24.1834 97.4843 24.1715C96.6078 24.2077 95.7406 23.9808 94.9942 23.52C94.2478 23.0592 93.6564 22.3856 93.2961 21.5859L104.754 16.8359L104.159 15.4399C103.613 13.9896 102.643 12.7369 101.377 11.8443C100.11 10.9516 98.6042 10.4602 97.0547 10.4338L97.063 10.4256ZM97.2117 13.7299C97.858 13.702 98.4989 13.8589 99.0593 14.1823C99.6196 14.5056 100.076 14.982 100.376 15.5555L92.7261 18.7524C92.6881 18.1275 92.7743 17.5013 92.9797 16.9099C93.185 16.3185 93.5054 15.7736 93.9224 15.3066C94.3395 14.8397 94.8448 14.4599 95.4094 14.1893C95.9739 13.9187 96.5865 13.7625 97.2117 13.7299ZM83.631 27.0297H87.3979V1.84266H83.631V27.0297Z" fill="#1B1B1B" fill-opacity="0.7"/>
</svg>
