<svg width="99" height="25" viewBox="0 0 99 25" fill="none" xmlns="http://www.w3.org/2000/svg">
<g clip-path="url(#clip0_12_126)">
<path d="M30.1938 10.0078C31.3249 10.0078 32.2417 9.09061 32.2417 7.95936C32.2417 6.82791 31.3249 5.91091 30.1938 5.91091C29.0628 5.91091 28.146 6.82791 28.146 7.95936C28.146 9.0908 29.0628 10.0078 30.1938 10.0078ZM97.7794 17.0067C97.4678 16.7876 97.2274 16.7513 97.0278 17.1767C93.5883 24.6262 87.7921 20.9088 88.3679 21.236C89.6535 20.6479 93.0349 17.936 92.5238 14.1916C92.2134 11.9032 90.2494 10.8881 88.1646 11.2516C84.5255 11.886 83.1868 15.8111 83.8683 19.2861C83.9876 19.8829 84.2007 20.3751 84.4136 20.8573C80.3013 24.2014 78.6682 17.8636 78.4829 17.1063C78.4755 17.0657 81.6581 14.4129 82.5433 8.09157C83.4711 1.46639 81.3576 0.260057 79.1964 0.297694C75.1972 0.367372 74.1165 8.72311 75.5684 15.687C75.4468 15.7187 74.8809 16.0321 73.9716 16.0673C73.3173 14.0084 70.5215 12.2037 69.7897 12.8991C67.9584 14.6388 70.2339 18.0399 71.8349 18.3066C70.8731 24.2304 64.8583 22.7633 65.9779 15.3417C67.9366 11.7044 69.4263 6.29597 69.1605 3.03096C69.0663 1.875 68.2117 0.32626 66.2788 0.403079C62.5612 0.550155 62.157 8.90821 62.5929 14.8403C62.5712 14.6942 62.3643 15.561 60.8409 15.992C60.4805 13.9918 57.2599 11.9841 56.5017 12.9493C55.0825 14.7559 57.5421 17.9771 58.7071 18.2018C57.7453 24.1254 51.7306 22.6583 52.8503 15.2367C54.809 11.5996 56.2985 6.19116 56.0327 2.92615C55.9385 1.77 55.0841 0.221261 53.151 0.297887C49.4334 0.445156 49.0292 8.80321 49.4651 14.7353C49.4433 14.5869 49.2315 15.4822 47.6459 15.9061C47.5928 13.311 44.3604 12.1211 43.5839 12.9491C42.2 14.4251 43.9009 17.4535 45.4743 18.2018C44.5125 24.1254 38.4979 22.6583 39.6175 15.2367C41.5762 11.5996 43.0659 6.19116 42.7999 2.92615C42.7059 1.77 41.8513 0.221261 39.9182 0.297887C36.2008 0.445156 35.9016 9.2234 36.3375 15.1553C35.113 20.4016 31.0066 26.9532 31.5401 13.8289C31.5928 12.9082 31.6503 12.5587 31.1913 12.2139C30.8474 11.946 30.0653 12.075 29.6378 12.0856C29.1182 12.1064 28.9879 12.4104 28.8731 12.87C28.6055 14.0566 28.5575 15.207 28.5193 16.7766C28.4942 17.5108 28.4353 17.8534 28.1525 18.8546C27.8702 19.8555 26.2591 21.6851 25.377 21.3792C24.1533 20.9584 24.5548 17.5039 24.7841 15.1304C24.9751 13.2547 24.3633 12.4124 22.7956 12.1061C21.8779 11.9148 21.3202 11.9441 20.3644 11.6428C19.4606 11.3579 19.2562 9.64822 17.3283 10.218C16.2739 10.5299 16.9518 12.764 16.6984 14.4199C15.4525 22.5652 12.8601 22.7889 11.6574 18.8322C17.074 5.56618 13.2243 0.336297 10.9709 0.336297C8.62383 0.336297 5.94095 1.95298 7.07703 12.2969C6.52462 12.1358 6.35477 12.0489 5.75006 12.0489C2.33006 12.0489 0 14.8136 0 18.2242C0 21.6347 2.33025 24.3996 5.75025 24.3996C7.76917 24.3996 9.18666 23.4815 10.2602 22.0611C10.9606 23.0642 11.8136 24.4151 13.3733 24.3543C18.0224 24.1732 19.3745 14.6366 19.5341 14.1047C20.0311 14.1813 20.5013 14.3263 20.9603 14.4029C21.725 14.5178 21.7806 14.8204 21.7632 15.5896C21.5605 22.0756 22.7574 24.3466 25.4724 24.3466C26.985 24.3466 28.3332 22.8604 29.262 21.7976C29.9557 23.2294 31.0611 24.3028 32.544 24.3464C36.1373 24.4357 37.5131 18.7085 37.3876 19.4622C37.2892 20.0536 38.5534 24.3141 42.2527 24.3296C46.8351 24.3489 47.6868 19.3097 47.7884 18.4656C47.8011 18.2977 47.8067 18.3151 47.7884 18.4656L47.7849 18.5168C49.2396 18.2462 49.9902 17.4662 49.9902 17.4662C49.9902 17.4662 51.1584 24.4079 55.4853 24.3298C59.9787 24.2483 60.826 19.6932 60.9372 18.805C60.9519 18.5942 60.9605 18.6189 60.9372 18.805L60.9355 18.831C62.6635 18.2024 63.118 17.5714 63.118 17.5714C63.118 17.5714 64.0464 24.3751 68.6131 24.4346C72.6826 24.4879 74.1908 20.3205 74.1997 18.5762C74.8861 18.5836 76.1557 18.169 76.126 18.1454C76.126 18.1454 77.6166 24.0941 81.7794 24.3996C83.7338 24.5431 85.1999 23.2999 86.0357 22.7328C87.9998 24.3234 94.54 26.3551 98.6697 19.3535C99.2526 18.3487 97.9994 17.1616 97.7794 17.0067ZM5.58523 22.09C3.58985 22.09 2.31037 20.245 2.31037 18.2556C2.31037 16.2665 3.48485 14.4214 5.48023 14.4214C6.37812 14.4214 6.87764 14.5203 7.57693 15.1284C7.70374 15.6282 8.06313 16.7808 8.238 17.3043C8.47232 18.0047 8.75103 18.6009 9.03206 19.2499C8.63059 20.9142 7.31443 22.09 5.58523 22.09ZM10.4476 15.1869C10.3646 15.0547 10.382 15.136 10.2892 15.0111C9.92339 14.0161 9.21851 11.7953 9.13686 9.27281C9.0446 6.4193 9.52019 3.07458 10.9222 3.07458C11.8722 3.07458 12.8819 9.8532 10.4474 15.1869M38.5428 12.2138C38.3178 10.5204 38.306 2.9717 40.1182 3.17958C41.1188 3.5849 39.4838 10.7081 38.5428 12.2138ZM51.7756 12.2138C51.5506 10.5204 51.5388 2.9717 53.351 3.17958C54.3516 3.5849 52.7166 10.7081 51.7756 12.2138ZM64.9034 12.3189C64.6782 10.6254 64.6666 3.0767 66.4786 3.28457C67.4792 3.6899 65.8442 10.8132 64.9034 12.3189ZM79.3964 2.73777C81.0532 2.56599 80.9849 9.80128 77.6593 14.3691C77.2304 12.7181 76.5728 3.30465 79.3964 2.73757M86.3603 18.3064C85.8282 15.6183 87.2032 13.8528 88.6207 13.6592C89.1162 13.5801 89.8342 13.9011 89.9774 14.5012C90.2129 15.632 89.9432 17.3095 86.7707 19.4379C86.7753 19.456 86.479 18.9051 86.3605 18.3064" fill="#1B1B1B" fill-opacity="0.7"/>
</g>
<defs>
<clipPath id="clip0_12_126">
<rect width="98.8228" height="24.3197" fill="white" transform="translate(0 0.296875)"/>
</clipPath>
</defs>
</svg>
