<svg width="28" height="23" viewBox="0 0 28 23" fill="none" xmlns="http://www.w3.org/2000/svg">
<path d="M11.5925 2.27999L6.1205 12.936L3.6245 13.512C3.8805 12.936 4.2325 12.456 4.6805 12.072C5.1925 11.624 5.7685 11.4 6.4085 11.4C7.6245 11.4 8.7125 11.88 9.6725 12.84C10.6965 13.8 11.2085 15.048 11.2085 16.584C11.2085 18.12 10.6325 19.464 9.4805 20.616C8.3925 21.704 7.0805 22.248 5.5445 22.248C4.0725 22.248 2.7925 21.704 1.7045 20.616C0.6165 19.464 0.0725002 18.12 0.0725002 16.584C0.0725002 15.944 0.1685 15.208 0.3605 14.376C0.6165 13.48 1.0965 12.328 1.8005 10.92L7.4645 0.0719948L11.5925 2.27999ZM27.3365 2.27999L21.8645 12.936L19.3685 13.512C19.6245 12.936 19.9765 12.456 20.4245 12.072C20.9365 11.624 21.5125 11.4 22.1525 11.4C23.3685 11.4 24.4565 11.88 25.4165 12.84C26.4405 13.8 26.9525 15.048 26.9525 16.584C26.9525 18.12 26.3765 19.464 25.2245 20.616C24.1365 21.704 22.8245 22.248 21.2885 22.248C19.8165 22.248 18.5365 21.704 17.4485 20.616C16.3605 19.464 15.8165 18.12 15.8165 16.584C15.8165 15.944 15.9125 15.208 16.1045 14.376C16.3605 13.48 16.8405 12.328 17.5445 10.92L23.2085 0.0719948L27.3365 2.27999Z" fill="#C68313"/>
</svg>
