<svg width="94" height="27" viewBox="0 0 94 27" fill="none" xmlns="http://www.w3.org/2000/svg">
<path d="M18.055 6.46681H12.5443L9.32192 14.1538L6.09489 6.46681H0.588867L6.58992 20.7573L4.37163 26.0345H9.88233C12.633 19.4777 15.3183 12.9816 18.055 6.46681ZM88.0642 0.0687966H93.9952L88.6386 13.0143H82.7076L88.0642 0.0687966ZM84.1646 14.2658C85.0502 14.2658 85.8995 14.6176 86.5257 15.2438C87.152 15.8701 87.5038 16.7194 87.5038 17.605C87.5038 18.4905 87.152 19.3399 86.5257 19.9661C85.8995 20.5923 85.0502 20.9441 84.1646 20.9441C83.2791 20.9441 82.4297 20.5923 81.8035 19.9661C81.1773 19.3399 80.8255 18.4905 80.8255 17.605C80.8255 16.7194 81.1773 15.8701 81.8035 15.2438C82.4297 14.6176 83.2791 14.2658 84.1646 14.2658ZM72.5128 6.07452C73.515 6.04953 74.5121 6.22535 75.4454 6.59162C76.3786 6.95789 77.2291 7.50721 77.9468 8.20722C78.6645 8.90723 79.2348 9.74378 79.6242 10.6676C80.0136 11.5914 80.2143 12.5838 80.2143 13.5863C80.2143 14.5889 80.0136 15.5813 79.6242 16.5051C79.2348 17.4289 78.6645 18.2655 77.9468 18.9655C77.2291 19.6655 76.3786 20.2148 75.4454 20.5811C74.5121 20.9474 73.515 21.1232 72.5128 21.0982C70.553 21.0493 68.6898 20.2364 67.321 18.833C65.9521 17.4296 65.1859 15.5468 65.1859 13.5863C65.1859 11.6259 65.9521 9.74309 67.321 8.33968C68.6898 6.93626 70.553 6.12339 72.5128 6.07452ZM72.5128 10.6512C71.735 10.6512 70.989 10.9602 70.439 11.5102C69.889 12.0602 69.58 12.8062 69.58 13.584C69.58 14.3618 69.889 15.1078 70.439 15.6578C70.989 16.2078 71.735 16.5168 72.5128 16.5168C73.2906 16.5168 74.0366 16.2078 74.5866 15.6578C75.1366 15.1078 75.4456 14.3618 75.4456 13.584C75.4456 12.8062 75.1366 12.0602 74.5866 11.5102C74.0366 10.9602 73.2906 10.6512 72.5128 10.6512ZM56.387 6.07452C57.3892 6.04953 58.3863 6.22535 59.3196 6.59162C60.2528 6.95789 61.1033 7.50721 61.821 8.20722C62.5387 8.90723 63.109 9.74378 63.4984 10.6676C63.8879 11.5914 64.0885 12.5838 64.0885 13.5863C64.0885 14.5889 63.8879 15.5813 63.4984 16.5051C63.109 17.4289 62.5387 18.2655 61.821 18.9655C61.1033 19.6655 60.2528 20.2148 59.3196 20.5811C58.3863 20.9474 57.3892 21.1232 56.387 21.0982C54.4272 21.0493 52.564 20.2364 51.1952 18.833C49.8263 17.4296 49.0602 15.5468 49.0602 13.5863C49.0602 11.6259 49.8263 9.74309 51.1952 8.33968C52.564 6.93626 54.4272 6.12339 56.387 6.07452ZM56.387 10.6512C55.6086 10.6512 54.862 10.9604 54.3115 11.5109C53.7611 12.0613 53.4519 12.8079 53.4519 13.5863C53.4519 14.3648 53.7611 15.1114 54.3115 15.6618C54.862 16.2123 55.6086 16.5215 56.387 16.5215C57.1655 16.5215 57.912 16.2123 58.4625 15.6618C59.0129 15.1114 59.3221 14.3648 59.3221 13.5863C59.3221 12.8079 59.0129 12.0613 58.4625 11.5109C57.912 10.9604 57.1655 10.6512 56.387 10.6512ZM34.2041 0.0220947H39.1731V7.74641C39.1731 7.74641 40.0417 6.07452 42.9138 6.07452C45.7859 6.07452 47.6306 7.33544 47.6633 12.5099V20.9441H42.6943V12.5099C42.6913 12.2787 42.6427 12.0503 42.5514 11.8379C42.4601 11.6255 42.3278 11.4331 42.1621 11.2718C41.9965 11.1105 41.8007 10.9834 41.5859 10.8977C41.3711 10.8121 41.1416 10.7696 40.9104 10.7726C40.6791 10.7757 40.4508 10.8243 40.2384 10.9156C40.0259 11.0069 39.8336 11.1392 39.6722 11.3048C39.5109 11.4705 39.3838 11.6663 39.2982 11.8811C39.2125 12.0958 39.17 12.3254 39.1731 12.5566V20.9441H34.2041V0.0220947ZM27.4465 6.46681H32.4155V20.9441H27.4418V19.5804C26.3369 20.5571 24.9143 21.0983 23.4396 21.1028C19.7782 21.1028 16.8081 17.7404 16.8081 13.5934C16.8081 9.44632 19.7782 6.07452 23.4396 6.07452C24.9433 6.07452 26.3304 6.64427 27.4418 7.60164L27.4465 6.46681ZM24.6445 10.6559C23.866 10.6559 23.1194 10.9651 22.569 11.5156C22.0185 12.066 21.7093 12.8126 21.7093 13.591C21.7093 14.3695 22.0185 15.116 22.569 15.6665C23.1194 16.2169 23.866 16.5262 24.6445 16.5262C25.4229 16.5262 26.1695 16.2169 26.7199 15.6665C27.2704 15.116 27.5796 14.3695 27.5796 13.591C27.5796 12.8126 27.2704 12.066 26.7199 11.5156C26.1695 10.9651 25.4229 10.6559 24.6445 10.6559Z" fill="#1B1B1B" fill-opacity="0.7"/>
</svg>
